<?xml version="1.0" encoding="utf-8"?>
<!-- Generator: Adobe Illustrator 24.0.3, SVG Export Plug-In . SVG Version: 6.00 Build 0)  -->
<svg version="1.1" id="Layer_1" xmlns="http://www.w3.org/2000/svg" xmlns:xlink="http://www.w3.org/1999/xlink" x="0px" y="0px"
	 viewBox="0 0 137.6 140" style="enable-background:new 0 0 137.6 140;" xml:space="preserve">
<style type="text/css">
	.st0{fill:#CC0000;}
</style>
<title>rails-logo</title>
<path class="st0" d="M137.6,11.2V36c-7.8,2.1-13.4,5.1-16.7,6.8C70.9,70.7,86,139.6,86,139.6H7c0,0,0-0.3,0.1-0.8
	C7.7,134,12,106.7,31,75c19.3-32.3,51.3-57.3,79-63.1c2.3-0.5,4.7-0.8,7-1C123.9,10.2,130.8,10.3,137.6,11.2z"/>
<path class="st0" d="M117.1,8.8h-1c-2.9,0-5.8,0.1-8.7,0.4l-1.9-5.9c3.3-0.4,6.5-0.6,9.6-0.6L117.1,8.8z"/>
<path class="st0" d="M132.6,50.1c-1.1,0.3-2.2,0.7-3.3,1.1c-1.8,0.7-3.6,1.5-5.4,2.4l-2.3-6.9c2.2-1,4.8-2,7.7-2.9
	c0.4-0.1,0.7-0.2,1.1-0.3L132.6,50.1z"/>
<path class="st0" d="M84.5,17c-2.6,1.3-5.1,2.8-7.7,4.4l-4.6-7c2.7-1.6,5.3-3,7.8-4.3L84.5,17z"/>
<path class="st0" d="M115.7,62.1c-2.2,2.3-4.2,4.6-5.9,7.1L105,62c1.8-2.3,3.9-4.6,6.2-6.7L115.7,62.1z"/>
<path class="st0" d="M100.7,88.9c-1,3.9-1.7,7.8-2.1,11.7l-8.1-6.4c0.8-3.6,1.7-7.3,3-11L100.7,88.9z"/>
<path class="st0" d="M46.7,46.7c-2.4,2.5-4.7,5.2-6.8,7.9L32.2,48c2.3-2.5,4.8-5,7.4-7.5L46.7,46.7z"/>
<path class="st0" d="M16.5,91.4c-1.6,3.7-3.7,8.6-5,12L0,99.2c1-2.7,3.1-7.7,5-12L16.5,91.4z"/>
<path class="st0" d="M102.2,136.5l-12-4.3c-0.5-3-1-7.3-1.2-12.6l10.8,3.9C100.4,128.2,101.3,132.6,102.2,136.5z"/>
</svg>
